<?xml version="1.0" encoding="utf-8"?>
<svg version="1.1" xmlns:xlink="http://www.w3.org/1999/xlink" width="50px" height="50px" xmlns="http://www.w3.org/2000/svg">
  <g transform="matrix(1 0 0 1 -285 -312 )">
    <path d="M 9.45413618458075 42.7089175546831  C 10.0168823860439 43.4006356328286  10.2982554867755 44.2232192933259  10.2982554867755 45.176668536175  C 10.2982554867755 46.6722751916246  9.78709435377978 47.8500654327912  8.76477208778841 48.7100392596747  C 7.74244982179704 49.5700130865582  6.47158131682611 50  4.95216657287563 50  C 2.9637966610392 50  1.35059088351154 49.383062254627  0.112549240292628 48.1491867638811  L 1.71637591446258 45.6814357823892  C 2.63552804351904 46.5227145260796  3.62971299943725 46.9433538979248  4.69893078221722 46.9433538979248  C 5.24291877696492 46.9433538979248  5.71656349652973 46.8078145447747  6.11986494091165 46.5367358384745  C 6.52316638529357 46.2656571321742  6.72481710748453 45.8683866143204  6.72481710748453 45.3449242849131  C 6.72481710748453 44.1484389605534  5.74001125492403 43.624976631146  3.77039954980304 43.774537296691  L 3.03882948790096 42.2041503084689  C 3.18889514162446 42.0171994765377  3.49371600075033 41.6105814170873  3.95329206527856 40.9842961301178  C 4.41286812980679 40.3580108431483  4.81148002250985 39.853243596934  5.14912774338773 39.469994391475  C 5.48677546426562 39.0867451860161  5.83380228850122 38.7268648345485  6.19020821609454 38.3903533370723  L 6.19020821609454 38.3623107122827  C 5.89007690864753 38.3623107122827  5.43519039579816 38.3716582538792  4.82554867754643 38.3903533370723  C 4.21590695929469 38.4090484202655  3.76102044644532 38.418395961862  3.46088913899831 38.418395961862  L 3.46088913899831 39.9046550757151  L 0.478334271243669 39.9046550757151  L 0.478334271243669 35.6421761076837  L 9.84805852560495 35.6421761076837  L 9.84805852560495 38.1099270891755  L 7.17501406865504 41.3348289399888  C 8.13168261114238 41.5591699383062  8.89138998311761 42.0171994765377  9.45413618458075 42.7089175546831  Z M 7.40011254924029 27.5939427930454  L 10.3545301069218 27.5939427930454  L 10.3545301069218 32  L 0.168823860438942 32  C 0.0562746201463142 31.3796971396523  0 30.874929893438  0 30.5384183959619  C 0 29.5849691531127  0.220408928906397 28.7156477846326  0.66122678671919 27.9304542905216  C 1.10204464453198 27.1452607964105  1.63196398424311 26.5096279678445  2.25098480585256 26.0235558048233  C 2.87000562746201 25.5374836418022  3.48902644907147 25.0934754159656  4.10804727068092 24.6915311273135  C 4.72706809229038 24.2895868386614  5.2569874320015 23.8829687792111  5.69780528981429 23.4716769489624  C 6.13862314762709 23.0603851187138  6.35903207653348 22.6397457468686  6.35903207653348 22.2097588334268  C 6.35903207653348 21.7423817535988  6.22303507784656 21.3825014021312  5.95104108047271 21.1301177790241  C 5.67904708309886 20.877734155917  5.30857250046896 20.7515423443634  4.83961733258301 20.7515423443634  C 3.97673982367286 20.7515423443634  3.21703245169762 21.2936997569639  2.56049521665729 22.3780145821649  L 0.168823860438942 20.7234997195738  C 0.619020821609454 19.7700504767246  1.28962671168636 19.0269209197981  2.18064153066967 18.4941110487942  C 3.07165634965297 17.9613011777902  4.06115175389233 17.6948962422883  5.14912774338773 17.6948962422883  C 6.51847683361471 17.6948962422883  7.67210654661414 18.0828192185455  8.61001688238605 18.85866517106  C 9.54792721815794 19.6345111235745  10.0168823860439 20.6861095531875  10.0168823860439 22.013460459899  C 10.0168823860439 22.9482146195551  9.69799287188145 23.8035146756403  9.06021384355656 24.5793606281548  C 8.42243481523166 25.3552065806693  7.71900206340274 25.9581230136474  6.94991558806978 26.3881099270892  C 6.18082911273682 26.8180968405309  5.47270680922904 27.2901476911572  4.82554867754643 27.804262478968  C 4.17839054586381 28.3183772667788  3.84543237666479 28.8091232005982  3.82667416994935 29.2765002804262  L 7.40011254924029 29.2765002804262  L 7.40011254924029 27.5939427930454  Z M 49.732695554305 35.9085810431856  C 49.9108985181017 36.0861843335203  50 36.2965040194429  50 36.5395401009535  L 50 41.9237240605721  C 50 42.1667601420826  49.9108985181017 42.3770798280052  49.732695554305 42.5546831183399  C 49.5544925905084 42.7322864086745  49.3434627649597 42.8210880538418  49.099606077659 42  L 14.8846370287001 42  C 14.6407803413994 42.8210880538418  14.4297505158507 42.7322864086745  14.251547552054 42.5546831183399  C 14.0733445882574 42.3770798280052  13.984243106359 42.1667601420826  13.984243106359 41.9237240605721  L 13.984243106359 36.5395401009535  C 13.984243106359 36.2778089362498  14.0686550365785 36.0628154795289  14.2374788970174 35.8945597307908  C 14.4063027574564 35.7263039820527  14.6220221346839 35.6421761076837  14.8846370287001 35  L 49.099606077659 35  C 49.3434627649597 35.6421761076837  49.5544925905084 35.730977752851  49.732695554305 35.9085810431856  Z M 8 11.3292204150309  L 10.3826674169949 11.3292204150309  L 10.3826674169949 14.1054402692092  L 0.956668542487338 14.1054402692092  L 0.956668542487338 11.3292204150309  L 3.96736072031514 11.3292204150309  C 3.96736072031514 10.5627220041129  3.972050271994 9.42699570013086  3.98142937535172 7.92204150308469  C 3.99080847870944 6.41708730603851  3.9954980303883 5.28136100205646  3.9954980303883 4.51486259113853  L 3.9954980303883 4.17835109366237  L 3.93922341024198 4.17835109366237  C 3.78915775651848 4.49616750794541  3.32020258863253 5.00093475415965  2.53235790658413 5.69265283230511  L 0.534608891389983 3.5614133482894  L 4.36128306133934 0  L 8 0  L 8 11.3292204150309  Z M 49.732695554305 21.5507571508693  C 49.9108985181017 21.728360441204  50 21.9386801271266  50 22.1817162086371  L 50 27.5659001682558  C 50 27.8089362497663  49.9108985181017 28.0192559356889  49.732695554305 28.1968592260236  C 49.5544925905084 28.3744625163582  49.3434627649597 28.4632641615255  49.099606077659 28  L 14.8846370287001 28  C 14.6407803413994 28.4632641615255  14.4297505158507 28.3744625163582  14.251547552054 28.1968592260236  C 14.0733445882574 28.0192559356889  13.984243106359 27.8089362497663  13.984243106359 27.5659001682558  L 13.984243106359 22.1817162086371  C 13.984243106359 21.9199850439334  14.0686550365785 21.7049915872126  14.2374788970174 21.5367358384745  C 14.4063027574564 21.3684800897364  14.6220221346839 21.2843522153674  14.8846370287001 22  L 49.099606077659 22  C 49.3434627649597 21.2843522153674  49.5544925905084 21.3731538605347  49.732695554305 21.5507571508693  Z M 49.732695554305 7.192933258553  C 49.9108985181017 7.37053654888764  50 7.58085623481024  50 7.82389231632081  L 50 13.2080762759394  C 50 13.45111235745  49.9108985181017 13.6614320433726  49.732695554305 13.8390353337072  C 49.5544925905084 14.0166386240419  49.3434627649597 14.1054402692092  49.099606077659 15  L 14.8846370287001 15  C 14.6407803413994 14.1054402692092  14.4297505158507 14.0166386240419  14.251547552054 13.8390353337072  C 14.0733445882574 13.6614320433726  13.984243106359 13.45111235745  13.984243106359 13.2080762759394  L 13.984243106359 7.82389231632081  C 13.984243106359 7.58085623481024  14.0733445882574 7.37053654888764  14.251547552054 7.192933258553  C 14.4297505158507 7.01532996821835  14.6407803413994 6.92652832305104  14.8846370287001 7  L 49.099606077659 7  C 49.3434627649597 6.92652832305104  49.5544925905084 7.01532996821835  49.732695554305 7.192933258553  Z " fill-rule="nonzero" fill="#000000" stroke="none" transform="matrix(1 0 0 1 285 312 )" />
  </g>
</svg>